<?xml version="1.0" encoding="utf-8"?>
<svg xmlns="http://www.w3.org/2000/svg"
	xmlns:xlink="http://www.w3.org/1999/xlink"
	width="32px" height="32px" viewBox="0 0 32 32">
<path fillRule="evenodd" d="M 31.06 25.89C 31.06 25.89 16.59 31.88 16.59 31.88 16.41 31.96 16.21 32 16 32 15.79 32 15.59 31.96 15.41 31.88 15.41 31.88 0.94 25.89 0.94 25.89 0.39 25.67-0 25.13-0 24.5-0 24.5-0 1.5-0 1.5-0 0.67 0.67 0 1.5 0 1.7 0 1.9 0.04 2.07 0.11 2.07 0.11 2.07 0.11 2.07 0.11 2.07 0.11 2.08 0.11 2.08 0.11 2.08 0.12 2.08 0.12 2.09 0.12 2.09 0.12 16 5.88 16 5.88 16 5.88 29.91 0.12 29.91 0.12 29.91 0.12 29.92 0.12 29.92 0.11 29.92 0.11 29.93 0.11 29.93 0.11 29.93 0.11 29.93 0.11 29.93 0.11 30.1 0.04 30.3 0 30.5 0 31.33 0 32 0.67 32 1.5 32 1.5 32 24.5 32 24.5 32 25.13 31.61 25.67 31.06 25.89ZM 14.5 8.5C 14.5 8.5 3 3.74 3 3.74 3 3.74 3 23.5 3 23.5 3 23.5 14.5 28.26 14.5 28.26 14.5 28.26 14.5 8.5 14.5 8.5ZM 29 3.74C 29 3.74 17.5 8.5 17.5 8.5 17.5 8.5 17.5 28.26 17.5 28.26 17.5 28.26 29 23.5 29 23.5 29 23.5 29 3.74 29 3.74ZM 19.88 10.63C 19.88 10.63 25.38 8.13 25.38 8.13 25.38 8.13 25.38 8.13 25.38 8.13 25.57 8.05 25.78 8 26 8 26.83 8 27.5 8.67 27.5 9.5 27.5 10.11 27.14 10.63 26.62 10.87 26.62 10.87 26.62 10.87 26.62 10.87 26.62 10.87 21.12 13.37 21.12 13.37 21.12 13.37 21.12 13.37 21.12 13.37 20.93 13.45 20.72 13.5 20.5 13.5 19.67 13.5 19 12.83 19 12 19 11.39 19.36 10.87 19.88 10.63ZM 19.88 16.13C 19.88 16.13 19.88 16.13 19.88 16.13 19.88 16.13 25.38 13.63 25.38 13.63 25.38 13.63 25.38 13.63 25.38 13.63 25.57 13.55 25.78 13.5 26 13.5 26.83 13.5 27.5 14.17 27.5 15 27.5 15.61 27.14 16.13 26.62 16.37 26.62 16.37 21.12 18.87 21.12 18.87 21.12 18.87 21.12 18.86 21.12 18.86 20.93 18.95 20.72 19 20.5 19 19.67 19 19 18.33 19 17.5 19 16.89 19.36 16.37 19.88 16.13ZM 19.88 21.63C 19.88 21.63 19.88 21.63 19.88 21.63 19.88 21.63 25.38 19.13 25.38 19.13 25.38 19.13 25.38 19.13 25.38 19.13 25.57 19.05 25.78 19 26 19 26.83 19 27.5 19.67 27.5 20.5 27.5 21.11 27.14 21.63 26.62 21.87 26.62 21.87 26.62 21.87 26.62 21.87 26.62 21.87 21.12 24.37 21.12 24.37 21.12 24.37 21.12 24.37 21.12 24.37 20.93 24.45 20.72 24.5 20.5 24.5 19.67 24.5 19 23.83 19 23 19 22.39 19.36 21.87 19.88 21.63ZM 6 8C 6.22 8 6.43 8.05 6.62 8.13 6.62 8.13 6.62 8.13 6.62 8.13 6.62 8.13 12.12 10.63 12.12 10.63 12.12 10.63 12.12 10.63 12.12 10.63 12.64 10.87 13 11.39 13 12 13 12.83 12.33 13.5 11.5 13.5 11.28 13.5 11.07 13.45 10.88 13.37 10.88 13.37 10.88 13.37 10.88 13.37 10.88 13.37 5.38 10.87 5.38 10.87 5.38 10.87 5.38 10.87 5.38 10.87 4.86 10.63 4.5 10.11 4.5 9.5 4.5 8.67 5.17 8 6 8ZM 6 13.5C 6.22 13.5 6.43 13.55 6.62 13.63 6.62 13.63 6.62 13.63 6.62 13.63 6.62 13.63 12.12 16.13 12.12 16.13 12.12 16.13 12.12 16.13 12.12 16.13 12.64 16.37 13 16.89 13 17.5 13 18.33 12.33 19 11.5 19 11.28 19 11.07 18.95 10.88 18.86 10.88 18.86 10.88 18.87 10.88 18.87 10.88 18.87 5.38 16.37 5.38 16.37 5.38 16.37 5.38 16.37 5.38 16.37 4.86 16.13 4.5 15.61 4.5 15 4.5 14.17 5.17 13.5 6 13.5ZM 6 19C 6.22 19 6.43 19.05 6.62 19.13 6.62 19.13 6.62 19.13 6.62 19.13 6.62 19.13 12.12 21.63 12.12 21.63 12.12 21.63 12.12 21.63 12.12 21.63 12.64 21.87 13 22.39 13 23 13 23.83 12.33 24.5 11.5 24.5 11.28 24.5 11.07 24.45 10.88 24.37 10.88 24.37 10.88 24.37 10.88 24.37 10.88 24.37 5.38 21.87 5.38 21.87 5.38 21.87 5.38 21.87 5.38 21.87 4.86 21.63 4.5 21.11 4.5 20.5 4.5 19.67 5.17 19 6 19Z" fill="rgb(149,225,211)"/></svg>