<?xml version="1.0" encoding="utf-8"?>
<svg xmlns="http://www.w3.org/2000/svg"
	xmlns:xlink="http://www.w3.org/1999/xlink"
	width="32px" height="31px" viewBox="0 0 32 31">
<path fillRule="evenodd" d="M 32 16.5C 32 17.33 31.33 18 30.5 18 30.1 18 29.75 17.84 29.48 17.59 29.48 17.59 29.48 17.6 29.48 17.6 29.48 17.6 16.04 4.16 16.04 4.16 16.04 4.16 16.04 4.16 16.04 4.16 16.04 4.16 16 4.12 16 4.12 16 4.12 16 4.12 16 4.12 16 4.12 2.55 17.57 2.55 17.57 2.55 17.57 2.55 17.57 2.55 17.57 2.28 17.83 1.91 18 1.5 18 0.67 18-0 17.33-0 16.5-0 16.07 0.18 15.69 0.46 15.42 0.46 15.42 14.92 0.96 14.92 0.96 15.19 0.68 15.58 0.5 16 0.5 16 0.5 16 0.5 16 0.5 16 0.5 16 0.5 16 0.5 16 0.5 16 0.5 16 0.5 16.03 0.5 16.05 0.5 16.08 0.5 16.08 0.5 16.09 0.5 16.09 0.5 16.11 0.5 16.14 0.51 16.16 0.51 16.16 0.51 16.16 0.51 16.16 0.51 16.53 0.55 16.86 0.72 17.1 0.98 17.1 0.98 17.1 0.98 17.1 0.98 17.1 0.98 23 6.88 23 6.88 23 6.88 23 5.5 23 5.5 23 4.67 23.67 4 24.5 4 25.33 4 26 4.67 26 5.5 26 5.5 26 9.88 26 9.88 26 9.88 31.6 15.48 31.6 15.48 31.6 15.48 31.59 15.48 31.59 15.48 31.84 15.75 32 16.1 32 16.5ZM 29 19C 29 19 29 23.5 29 23.5 29 23.5 29 25.5 29 25.5 29 25.5 29 29.5 29 29.5 29 30.33 28.33 31 27.5 31 27.5 31 24.5 31 24.5 31 24.5 31 24.5 19 24.5 19 24.5 19 18.5 19 18.5 19 18.5 19 18.5 31 18.5 31 18.5 31 4.5 31 4.5 31 3.67 31 3 30.33 3 29.5 3 29.5 3 25.5 3 25.5 3 25.5 3 23.5 3 23.5 3 23.5 3 19 3 19 3 19 16 6 16 6 16 6 29 19 29 19ZM 13.5 19C 13.5 19 7.5 19 7.5 19 7.5 19 7.5 25 7.5 25 7.5 25 13.5 25 13.5 25 13.5 25 13.5 19 13.5 19Z" fill="rgb(149,225,211)"/></svg>