<?xml version="1.0" encoding="utf-8"?>
<svg xmlns="http://www.w3.org/2000/svg"
	xmlns:xlink="http://www.w3.org/1999/xlink"
	width="32px" height="32px" viewBox="0 0 32 32">
<path fillRule="evenodd" d="M 30.5 32C 30.5 32 1.5 32 1.5 32 0.67 32-0 31.33-0 30.5-0 30.5-0 1.5-0 1.5-0 0.67 0.67 0 1.5 0 1.5 0 30.5 0 30.5 0 31.33 0 32 0.67 32 1.5 32 1.5 32 30.5 32 30.5 32 31.33 31.33 32 30.5 32ZM 29 3C 29 3 3 3 3 3 3 3 3 29 3 29 3 29 29 29 29 29 29 29 29 3 29 3ZM 6.5 4.5C 6.5 4.5 12 4.5 12 4.5 12 4.5 12 4.5 12 4.5 12.83 4.5 13.5 5.17 13.5 6 13.5 6.83 12.83 7.5 12 7.5 12 7.5 12 7.5 12 7.5 12 7.5 7.5 7.5 7.5 7.5 7.5 7.5 7.5 12 7.5 12 7.5 12 7.5 12 7.5 12 7.5 12.83 6.83 13.5 6 13.5 5.17 13.5 4.5 12.83 4.5 12 4.5 12 4.5 12 4.5 12 4.5 12 4.5 6.5 4.5 6.5 4.5 6.5 4.5 6.5 4.5 6.5 4.5 6.5 4.5 4.5 4.5 4.5 4.5 4.5 6.5 4.5 6.5 4.5 6.5 4.5 6.5 4.5 6.5 4.5ZM 4.5 20C 4.5 20 4.5 20 4.5 20 4.5 19.17 5.17 18.5 6 18.5 6.83 18.5 7.5 19.17 7.5 20 7.5 20 7.5 20 7.5 20 7.5 20 7.5 24.5 7.5 24.5 7.5 24.5 12 24.5 12 24.5 12 24.5 12 24.5 12 24.5 12.83 24.5 13.5 25.17 13.5 26 13.5 26.83 12.83 27.5 12 27.5 12 27.5 12 27.5 12 27.5 12 27.5 6.5 27.5 6.5 27.5 6.5 27.5 6.5 27.5 6.5 27.5 6.5 27.5 4.5 27.5 4.5 27.5 4.5 27.5 4.5 25.5 4.5 25.5 4.5 25.5 4.5 25.5 4.5 25.5 4.5 25.5 4.5 20 4.5 20ZM 20 4.5C 20 4.5 20 4.5 20 4.5 20 4.5 25.5 4.5 25.5 4.5 25.5 4.5 25.5 4.5 25.5 4.5 25.5 4.5 27.5 4.5 27.5 4.5 27.5 4.5 27.5 6.5 27.5 6.5 27.5 6.5 27.5 6.5 27.5 6.5 27.5 6.5 27.5 12 27.5 12 27.5 12 27.5 12 27.5 12 27.5 12.83 26.83 13.5 26 13.5 25.17 13.5 24.5 12.83 24.5 12 24.5 12 24.5 12 24.5 12 24.5 12 24.5 7.5 24.5 7.5 24.5 7.5 20 7.5 20 7.5 20 7.5 20 7.5 20 7.5 19.17 7.5 18.5 6.83 18.5 6 18.5 5.17 19.17 4.5 20 4.5ZM 20 24.5C 20 24.5 20 24.5 20 24.5 20 24.5 24.5 24.5 24.5 24.5 24.5 24.5 24.5 20 24.5 20 24.5 20 24.5 20 24.5 20 24.5 19.17 25.17 18.5 26 18.5 26.83 18.5 27.5 19.17 27.5 20 27.5 20 27.5 20 27.5 20 27.5 20 27.5 25.5 27.5 25.5 27.5 25.5 27.5 25.5 27.5 25.5 27.5 25.5 27.5 27.5 27.5 27.5 27.5 27.5 25.5 27.5 25.5 27.5 25.5 27.5 25.5 27.5 25.5 27.5 25.5 27.5 20 27.5 20 27.5 20 27.5 20 27.5 20 27.5 19.17 27.5 18.5 26.83 18.5 26 18.5 25.17 19.17 24.5 20 24.5Z" fill="rgb(149,225,211)"/></svg>