<?xml version="1.0" encoding="utf-8"?>
<svg xmlns="http://www.w3.org/2000/svg"
	xmlns:xlink="http://www.w3.org/1999/xlink"
	width="32px" height="31px" viewBox="0 0 32 31">
<path fillRule="evenodd" d="M 30.74 9.5C 29.16 5.81 26.19 2.84 22.5 1.26 23.5 0.47 24.75-0 26.13-0 29.37-0 32 2.63 32 5.87 32 7.24 31.53 8.5 30.74 9.5ZM 30.5 16C 30.5 19.85 28.99 23.34 26.54 25.94 26.54 25.94 28.57 27.97 28.57 27.97 28.83 28.24 29 28.61 29 29.02 29 29.84 28.34 30.5 27.52 30.5 27.11 30.5 26.74 30.33 26.47 30.07 26.47 30.07 24.29 27.89 24.29 27.89 21.94 29.53 19.08 30.5 16 30.5 12.92 30.5 10.07 29.53 7.72 27.9 7.72 27.9 5.56 30.06 5.56 30.06 5.29 30.33 4.91 30.5 4.5 30.5 3.67 30.5 3 29.83 3 29 3 28.59 3.17 28.21 3.44 27.94 3.44 27.94 5.45 25.93 5.45 25.93 3.01 23.33 1.5 19.85 1.5 16 1.5 7.99 7.99 1.5 16 1.5 24.01 1.5 30.5 7.99 30.5 16ZM 16 4.5C 9.65 4.5 4.5 9.65 4.5 16 4.5 22.35 9.65 27.5 16 27.5 22.35 27.5 27.5 22.35 27.5 16 27.5 9.65 22.35 4.5 16 4.5ZM 22 17.5C 22 17.5 16 17.5 16 17.5 15.17 17.5 14.5 16.83 14.5 16 14.5 16 14.5 8 14.5 8 14.5 7.17 15.17 6.5 16 6.5 16.83 6.5 17.5 7.17 17.5 8 17.5 8 17.5 14.5 17.5 14.5 17.5 14.5 22 14.5 22 14.5 22.83 14.5 23.5 15.17 23.5 16 23.5 16.83 22.83 17.5 22 17.5ZM 1.29 9.71C 0.48 8.68-0 7.4-0 6-0 2.69 2.69-0 6-0 7.4-0 8.69 0.48 9.71 1.29 5.93 2.9 2.9 5.93 1.29 9.71Z" fill="rgb(149,225,211)"/></svg>