<?xml version="1.0" encoding="utf-8"?>
<svg xmlns="http://www.w3.org/2000/svg"
	xmlns:xlink="http://www.w3.org/1999/xlink"
	width="32px" height="28px" viewBox="0 0 32 28">
<path fillRule="evenodd" d="M 30 23C 30 23 22.5 23 22.5 23 22.5 23 20.5 23 20.5 23 20.5 23 20.5 25.5 20.5 25.5 20.5 25.5 22.5 27.5 22.5 27.5 22.5 27.5 22.5 28 22.5 28 22.5 28 9.5 28 9.5 28 9.5 28 9.5 27.5 9.5 27.5 9.5 27.5 11.5 25.5 11.5 25.5 11.5 25.5 11.5 23 11.5 23 11.5 23 9.5 23 9.5 23 9.5 23 2 23 2 23 1.17 23 0.5 22.33 0.5 21.5 0.5 21.5 0.5 1.5 0.5 1.5 0.5 0.67 1.17-0 2-0 2-0 30-0 30-0 30.83-0 31.5 0.67 31.5 1.5 31.5 1.5 31.5 21.5 31.5 21.5 31.5 22.33 30.83 23 30 23ZM 29.5 2C 29.5 2 2.5 2 2.5 2 2.5 2 2.5 19 2.5 19 2.5 19 29.5 19 29.5 19 29.5 19 29.5 2 29.5 2ZM 13 9C 13.41 9 13.79 9.17 14.06 9.44 14.06 9.44 14.06 9.44 14.06 9.44 14.06 9.44 15 10.38 15 10.38 15 10.38 17.94 7.44 17.94 7.44 17.94 7.44 17.94 7.44 17.94 7.44 18.21 7.17 18.59 7 19 7 19.83 7 20.5 7.67 20.5 8.5 20.5 8.91 20.33 9.29 20.06 9.56 20.06 9.56 20.06 9.56 20.06 9.56 20.06 9.56 16.06 13.56 16.06 13.56 16.06 13.56 16.06 13.56 16.06 13.56 15.79 13.83 15.41 14 15 14 14.59 14 14.21 13.83 13.94 13.56 13.94 13.56 13.94 13.56 13.94 13.56 13.94 13.56 11.94 11.56 11.94 11.56 11.94 11.56 11.94 11.56 11.94 11.56 11.67 11.29 11.5 10.91 11.5 10.5 11.5 9.67 12.17 9 13 9Z" fill="rgb(149,225,211)"/></svg>