<?xml version="1.0" encoding="utf-8"?>
<svg xmlns="http://www.w3.org/2000/svg"
	xmlns:xlink="http://www.w3.org/1999/xlink"
	width="32px" height="32px" viewBox="0 0 32 32">
<path fillRule="evenodd" d="M 30.5 32C 30.5 32 1.5 32 1.5 32 0.67 32 0 31.33 0 30.5 0 30.5 0 1.5 0 1.5 0 0.67 0.67-0 1.5-0 1.5-0 30.5-0 30.5-0 31.33-0 32 0.67 32 1.5 32 1.5 32 30.5 32 30.5 32 31.33 31.33 32 30.5 32ZM 29 3C 29 3 3 3 3 3 3 3 3 29 3 29 3 29 29 29 29 29 29 29 29 3 29 3ZM 5.22 16.24C 5.22 16.24 5.21 16.24 5.21 16.24 5.21 16.24 9.21 13.74 9.21 13.74 9.21 13.74 9.22 13.74 9.22 13.74 9.44 13.6 9.71 13.52 10 13.52 10.31 13.52 10.6 13.61 10.84 13.77 10.84 13.77 10.85 13.77 10.85 13.77 10.85 13.77 17.48 18.19 17.48 18.19 17.48 18.19 25.11 12.79 25.11 12.79 25.36 12.61 25.67 12.51 26 12.51 26.83 12.51 27.5 13.18 27.5 14.01 27.5 14.51 27.25 14.95 26.88 15.22 26.88 15.22 26.88 15.22 26.88 15.22 26.88 15.22 18.38 21.22 18.38 21.22 18.38 21.22 18.38 21.22 18.38 21.22 18.13 21.4 17.83 21.51 17.5 21.51 17.18 21.51 16.88 21.4 16.64 21.23 16.64 21.23 9.98 16.8 9.98 16.8 9.98 16.8 6.85 18.75 6.85 18.75 6.61 18.92 6.31 19.02 6 19.02 5.17 19.02 4.5 18.35 4.5 17.52 4.5 16.98 4.79 16.5 5.22 16.24Z" fill="rgb(149,225,211)"/></svg>